<?xml version="1.0" encoding="UTF-8" standalone="no"?>
<svg
   xmlns:dc="http://purl.org/dc/elements/1.1/"
   xmlns:cc="http://creativecommons.org/ns#"
   xmlns:rdf="http://www.w3.org/1999/02/22-rdf-syntax-ns#"
   xmlns:svg="http://www.w3.org/2000/svg"
   xmlns="http://www.w3.org/2000/svg"
   xmlns:sodipodi="http://sodipodi.sourceforge.net/DTD/sodipodi-0.dtd"
   xmlns:inkscape="http://www.inkscape.org/namespaces/inkscape"
   viewBox="0 0 512 512"
   version="1.1"
   id="svg4"
   sodipodi:docname="pen-to-square-solid.svg"
   inkscape:version="0.92.5 (2060ec1f9f, 2020-04-08)">
  <metadata
     id="metadata10">
    <rdf:RDF>
      <cc:Work
         rdf:about="">
        <dc:format>image/svg+xml</dc:format>
        <dc:type
           rdf:resource="http://purl.org/dc/dcmitype/StillImage" />
      </cc:Work>
    </rdf:RDF>
  </metadata>
  <defs
     id="defs8" />
  <sodipodi:namedview
     pagecolor="#ffffff"
     bordercolor="#666666"
     borderopacity="1"
     objecttolerance="10"
     gridtolerance="10"
     guidetolerance="10"
     inkscape:pageopacity="0"
     inkscape:pageshadow="2"
     inkscape:window-width="1600"
     inkscape:window-height="851"
     id="namedview6"
     showgrid="false"
     inkscape:zoom="0.4609375"
     inkscape:cx="-173.55932"
     inkscape:cy="256"
     inkscape:window-x="0"
     inkscape:window-y="0"
     inkscape:window-maximized="1"
     inkscape:current-layer="svg4" />
  <!--! Font Awesome Pro 6.0.0 by @fontawesome - https://fontawesome.com License - https://fontawesome.com/license (Commercial License) Copyright 2022 Fonticons, Inc. -->
  <path
     d="m 104.0528,428.05323 c 4.64768,3.89295 4.64768,10.20498 0,14.09793 l -6.366678,5.35792 -20.797832,-17.44085 6.387908,-5.3508 c 4.647674,-3.89357 12.160357,-3.89357 16.808042,0 z m -67.465603,35.83224 35.504862,-29.79078 20.797827,17.43729 -35.526084,29.7801 c -1.294558,1.10362 -2.886229,1.92244 -4.647678,2.42086 l -18.845378,5.26892 c -2.016115,0.49841 -3.84123,0.1068 -5.220679,-1.19263 -1.358225,-0.99682 -1.825115,-2.68786 -1.230891,-4.2187 l 6.281792,-15.80677 c 0.594224,-1.47743 1.570449,-2.81246 2.886229,-3.89829 z m 4.159566,-31.79155 c 3.756342,0 6.791127,2.711 6.791127,5.69614 0,3.31087 -3.034785,5.69613 -6.791127,5.69613 H 20.373382 c -3.749976,0 -6.791128,2.70566 -6.791128,5.69614 v 45.72927 c 0,3.15067 3.041152,5.69613 6.791128,5.69613 H 74.7024 c 3.756338,0 6.791126,-2.54546 6.791126,-5.69613 v -17.24861 c 0,-2.99046 3.034787,-5.69613 6.791125,-5.69613 3.756345,0 6.791132,2.70567 6.791132,5.69613 V 494.9116 C 95.075783,504.34582 85.950206,512 74.7024,512 H 20.373382 C 9.121333,512 0,504.34582 0,494.9116 v -45.72927 c 0,-9.43423 9.121333,-17.08841 20.373382,-17.08841 z"
     id="path2"
     style="fill:#ffffff;stroke-width:0.19436187"
     inkscape:connector-curvature="0"
     inkscape:export-xdpi="96"
     inkscape:export-ydpi="96" />
</svg>
